<?xml version="1.0" encoding="UTF-8"?>
<svg width="128px" height="128px" version="1.1" viewBox="0 0 752 752" xmlns="http://www.w3.org/2000/svg" fill="#ffffff">
  <defs>
    <clipPath id="h">
      <path d="m597 205h15.793v371h-15.793z" />
    </clipPath>
    <clipPath id="g">
      <path d="m583 176h29.793v30h-29.793z" />
    </clipPath>
    <clipPath id="f">
      <path d="m597 191h15.793v30h-15.793z" />
    </clipPath>
    <clipPath id="e">
      <path d="m139.21 176h29.789v30h-29.789z" />
    </clipPath>
    <clipPath id="d">
      <path d="m139.21 191h14.789v30h-14.789z" />
    </clipPath>
    <clipPath id="c">
      <path d="m139.21 205h473.58v16h-473.58z" />
    </clipPath>
    <clipPath id="b">
      <path d="m139.21 205h14.789v371h-14.789z" />
    </clipPath>
    <clipPath id="a">
      <path d="m139.21 560h473.58v16h-473.58z" />
    </clipPath>
  </defs>
  <g clip-path="url(#h)">
    <path
      d="m605.39 575.79c-4.0938 0-7.3984-3.3086-7.3984-7.3984v-355.19c0-4.0938 3.3086-7.3984 7.3984-7.3984 4.0938 0 7.3984 3.3086 7.3984 7.3984v355.19c0.003907 4.0898-3.3047 7.3984-7.3984 7.3984z" />
  </g>
  <path
    d="m213.4 205.81c-4.082 0-7.4336-3.3086-7.4336-7.3984 0-4.0938 3.2695-7.3984 7.3555-7.3984h0.082032c4.0859 0 7.3984 3.3086 7.3984 7.3984s-3.3164 7.3984-7.4023 7.3984z" />
  <path
    d="m191.2 205.81c-4.0859 0-7.4375-3.3086-7.4375-7.3984 0-4.0938 3.2695-7.3984 7.3555-7.3984h0.082031c4.0859 0 7.3984 3.3086 7.3984 7.3984s-3.3164 7.3984-7.3984 7.3984z" />
  <path
    d="m169 205.81c-4.0859 0-7.4375-3.3086-7.4375-7.3984 0-4.0938 3.2695-7.3984 7.3555-7.3984h0.082031c4.0859 0 7.3984 3.3086 7.3984 7.3984s-3.3164 7.3984-7.3984 7.3984z" />
  <g clip-path="url(#g)">
    <path
      d="m605.39 205.81c-4.0938 0-7.3984-3.3086-7.3984-7.3984 0-4.0859-3.3164-7.3984-7.3984-7.3984-4.0938 0-7.3984-3.3086-7.3984-7.3984 0-4.0938 3.3086-7.3984 7.3984-7.3984 12.238 0 22.199 9.9609 22.199 22.199 0 4.0859-3.3086 7.3945-7.4023 7.3945z" />
  </g>
  <g clip-path="url(#f)">
    <path
      d="m605.39 220.61c-4.0938 0-7.3984-3.3086-7.3984-7.3984v-14.801c0-4.0938 3.3086-7.3984 7.3984-7.3984 4.0938 0 7.3984 3.3086 7.3984 7.3984v14.801c0.003907 4.0898-3.3047 7.3984-7.3984 7.3984z" />
  </g>
  <g clip-path="url(#e)">
    <path
      d="m146.6 205.81c-4.0938 0-7.3984-3.3086-7.3984-7.3984 0-12.238 9.9609-22.199 22.199-22.199 4.0938 0 7.3984 3.3086 7.3984 7.3984 0 4.0938-3.3086 7.3984-7.3984 7.3984-4.0859 0-7.3984 3.3164-7.3984 7.3984-0.003906 4.0938-3.3125 7.4023-7.4023 7.4023z" />
  </g>
  <g clip-path="url(#d)">
    <path
      d="m146.6 220.61c-4.0938 0-7.3984-3.3086-7.3984-7.3984l-0.003907-14.801c0-4.0938 3.3086-7.3984 7.3984-7.3984 4.0938 0 7.3984 3.3086 7.3984 7.3984v14.801c0.003906 4.0898-3.3047 7.3984-7.3945 7.3984z" />
  </g>
  <path
    d="m590.61 191.01h-429.1c-4.0938 0-7.3984-3.3086-7.3984-7.3984 0-4.0938 3.3086-7.3984 7.3984-7.3984h429.09c4.0938 0 7.3984 3.3086 7.3984 7.3984 0.003906 4.0938-3.3047 7.3984-7.3945 7.3984z" />
  <g clip-path="url(#c)">
    <path
      d="m605.41 220.61h-458.69c-4.0938 0-7.3984-3.3086-7.3984-7.3984 0-4.0938 3.3086-7.3984 7.3984-7.3984h458.69c4.0938 0 7.3984 3.3086 7.3984 7.3984 0.003906 4.0898-3.3047 7.3984-7.3984 7.3984z" />
  </g>
  <g clip-path="url(#b)">
    <path
      d="m146.6 575.79c-4.0938 0-7.3984-3.3086-7.3984-7.3984l-0.003907-355.19c0-4.0938 3.3086-7.3984 7.3984-7.3984 4.0938 0 7.3984 3.3086 7.3984 7.3984v355.19c0.003906 4.0898-3.3047 7.3984-7.3945 7.3984z" />
  </g>
  <g clip-path="url(#a)">
    <path
      d="m605.39 575.79h-458.79c-4.0938 0-7.3984-3.3086-7.3984-7.3984 0-4.0938 3.3086-7.3984 7.3984-7.3984l458.79-0.003906c4.0938 0 7.3984 3.3086 7.3984 7.3984 0.003907 4.0938-3.3047 7.4023-7.3984 7.4023z" />
  </g>
  <path
    d="m568.39 302h-384.79c-4.0938 0-7.3984-3.3086-7.3984-7.3984v-44.398c0-4.0938 3.3086-7.3984 7.3984-7.3984h384.79c4.0938 0 7.3984 3.3086 7.3984 7.3984v44.398c0 4.0898-3.3086 7.3984-7.3984 7.3984zm-377.39-14.801h369.98v-29.598h-369.98z" />
  <path
    d="m524 302c-4.0938 0-7.3984-3.3086-7.3984-7.3984v-44.398c0-4.0938 3.3086-7.3984 7.3984-7.3984 4.0938 0 7.3984 3.3086 7.3984 7.3984v44.398c0 4.0898-3.3086 7.3984-7.3984 7.3984z" />
  <path
    d="m183.83 413c-4.0938 0-7.4375-3.3086-7.4375-7.3984 0-4.0938 3.2695-7.3984 7.3555-7.3984l0.082031-0.003906c4.0859 0 7.3984 3.3086 7.3984 7.3984 0 4.0938-3.3164 7.4023-7.3984 7.4023z" />
  <path
    d="m235.41 368.6c-4.0938 0-7.3984-3.3086-7.3984-7.3984 0-4.0859-3.3164-7.3984-7.3984-7.3984-4.0859 0-7.3984 3.3164-7.3984 7.3984 0 4.0938-3.3086 7.3984-7.3984 7.3984-4.0938 0-7.3984-3.3086-7.3984-7.3984 0-12.238 9.9609-22.199 22.199-22.199s22.199 9.9609 22.199 22.199c-0.003906 4.0898-3.3125 7.3984-7.4062 7.3984z" />
  <path
    d="m220.61 413c-12.238 0-22.199-9.9609-22.199-22.199 0-4.0938 3.3086-7.3984 7.3984-7.3984 4.0938 0 7.3984 3.3086 7.3984 7.3984 0 4.0859 3.3164 7.3984 7.3984 7.3984 4.0859 0 7.3984-3.3164 7.3984-7.3984 0-4.0938 3.3086-7.3984 7.3984-7.3984 4.0938 0 7.3984 3.3086 7.3984 7.3984 0.007813 12.238-9.9531 22.199-22.191 22.199z" />
  <path
    d="m287.2 368.6c-4.0938 0-7.3984-3.3086-7.3984-7.3984 0-4.0859-3.3164-7.3984-7.3984-7.3984-4.0859 0-7.3984 3.3164-7.3984 7.3984 0 4.0938-3.3086 7.3984-7.3984 7.3984-4.0938 0-7.3984-3.3086-7.3984-7.3984 0-12.238 9.9609-22.199 22.199-22.199 12.238 0 22.199 9.9609 22.199 22.199-0.003906 4.0898-3.3125 7.3984-7.4062 7.3984z" />
  <path
    d="m272.41 413c-12.238 0-22.199-9.9609-22.199-22.199 0-4.0938 3.3086-7.3984 7.3984-7.3984 4.0938 0 7.3984 3.3086 7.3984 7.3984 0 4.0859 3.3164 7.3984 7.3984 7.3984 4.0859 0 7.3984-3.3164 7.3984-7.3984 0-4.0938 3.3086-7.3984 7.3984-7.3984 4.0938 0 7.3984 3.3086 7.3984 7.3984 0.007813 12.238-9.9531 22.199-22.191 22.199z" />
  <path
    d="m205.81 398.2c-4.0938 0-7.3984-3.3086-7.3984-7.3984v-29.598c0-4.0938 3.3086-7.3984 7.3984-7.3984 4.0938 0 7.3984 3.3086 7.3984 7.3984v29.598c0 4.0938-3.3086 7.3984-7.3984 7.3984z" />
  <path
    d="m257.61 398.2c-4.0938 0-7.3984-3.3086-7.3984-7.3984v-29.598c0-4.0938 3.3086-7.3984 7.3984-7.3984 4.0938 0 7.3984 3.3086 7.3984 7.3984v29.598c0.003906 4.0938-3.3047 7.3984-7.3984 7.3984z" />
  <path
    d="m287.2 398.2c-4.0938 0-7.3984-3.3086-7.3984-7.3984v-29.598c0-4.0938 3.3086-7.3984 7.3984-7.3984 4.0938 0 7.3984 3.3086 7.3984 7.3984v29.598c0.003907 4.0938-3.3047 7.3984-7.3984 7.3984z" />
  <path
    d="m309.4 413c-4.0938 0-7.3984-3.3086-7.3984-7.3984v-59.199c0-4.0938 3.3086-7.3984 7.3984-7.3984 4.0938 0 7.3984 3.3086 7.3984 7.3984v59.199c0.003907 4.0898-3.3047 7.3984-7.3984 7.3984z" />
  <path
    d="m331.61 390.8c-2.5156 0-4.9648-1.2812-6.3477-3.5898l-22.199-37c-2.1016-3.5078-0.96875-8.0508 2.5391-10.152 3.5156-2.1016 8.0508-0.96094 10.152 2.5391l22.199 37c2.1016 3.5078 0.96875 8.0508-2.5391 10.152-1.1914 0.71094-2.5078 1.0508-3.8047 1.0508z" />
  <path
    d="m331.6 390.8c-1.2969 0-2.6133-0.33984-3.8047-1.0586-3.5078-2.1016-4.6406-6.6445-2.5391-10.152l22.199-37c2.1016-3.5 6.6367-4.6406 10.152-2.5391 3.5078 2.1016 4.6406 6.6445 2.5391 10.152l-22.199 37c-1.3828 2.3164-3.832 3.5977-6.3477 3.5977z" />
  <path
    d="m353.8 413c-4.0938 0-7.3984-3.3086-7.3984-7.3984v-59.199c0-4.0938 3.3086-7.3984 7.3984-7.3984 4.0938 0 7.3984 3.3086 7.3984 7.3984v59.199c0.003906 4.0898-3.3047 7.3984-7.3984 7.3984z" />
  <path
    d="m535.09 413c-22.438 0-40.699-18.262-40.699-40.699s18.262-40.699 40.699-40.699 40.699 18.262 40.699 40.699-18.262 40.699-40.699 40.699zm0-66.598c-14.281 0-25.898 11.617-25.898 25.898s11.617 25.898 25.898 25.898 25.898-11.617 25.898-25.898-11.617-25.898-25.898-25.898z" />
  <path
    d="m531.39 390.8c-1.8945 0-3.7891-0.72656-5.2305-2.168l-7.3984-7.3984c-2.8945-2.8945-2.8945-7.5703 0-10.465s7.5703-2.8945 10.465 0l7.3984 7.3984c2.8945 2.8945 2.8945 7.5703 0 10.465-1.4453 1.4414-3.3398 2.168-5.2344 2.168z" />
  <path
    d="m531.39 390.8c-1.8945 0-3.7891-0.72656-5.2305-2.168-2.8945-2.8945-2.8945-7.5703 0-10.465l14.801-14.801c2.8945-2.8945 7.5703-2.8945 10.465 0 2.8945 2.8945 2.8945 7.5703 0 10.465l-14.801 14.801c-1.4453 1.4414-3.3398 2.168-5.2344 2.168z" />
  <path
    d="m464.8 368.6h-59.199c-4.0938 0-7.3984-3.3086-7.3984-7.3984 0-4.0938 3.3086-7.3984 7.3984-7.3984h59.199c4.0938 0 7.3984 3.3086 7.3984 7.3984 0.003907 4.0898-3.3047 7.3984-7.3984 7.3984z" />
  <path
    d="m435.2 390.8h-29.598c-4.0938 0-7.3984-3.3086-7.3984-7.3984 0-4.0938 3.3086-7.3984 7.3984-7.3984h29.598c4.0938 0 7.3984 3.3086 7.3984 7.3984s-3.3047 7.3984-7.3984 7.3984z" />
  <path
    d="m183.83 524c-4.0938 0-7.4375-3.3086-7.4375-7.3984 0-4.0938 3.2695-7.3984 7.3555-7.3984l0.082031-0.003907c4.0859 0 7.3984 3.3086 7.3984 7.3984 0 4.0938-3.3164 7.4023-7.3984 7.4023z" />
  <path
    d="m205.81 524c-4.0938 0-7.3984-3.3086-7.3984-7.3984v-59.199c0-4.0938 3.3086-7.3984 7.3984-7.3984 4.0938 0 7.3984 3.3086 7.3984 7.3984v59.199c0 4.0898-3.3086 7.3984-7.3984 7.3984z" />
  <path
    d="m235.41 524c-2.7148 0-5.3281-1.4961-6.6289-4.0938l-29.598-59.199c-1.8281-3.6562-0.34766-8.1016 3.3086-9.9297 3.6562-1.8125 8.0938-0.34766 9.9297 3.3086l29.598 59.199c1.8281 3.6562 0.34766 8.1016-3.3086 9.9297-1.0586 0.53125-2.1914 0.78516-3.3008 0.78516z" />
  <path
    d="m235.41 524c-4.0938 0-7.3984-3.3086-7.3984-7.3984v-59.199c0-4.0938 3.3086-7.3984 7.3984-7.3984 4.0938 0 7.3984 3.3086 7.3984 7.3984v59.199c0.003906 4.0898-3.3047 7.3984-7.3984 7.3984z" />
  <path
    d="m535.09 524c-22.438 0-40.699-18.262-40.699-40.699s18.262-40.699 40.699-40.699 40.699 18.262 40.699 40.699-18.262 40.699-40.699 40.699zm0-66.598c-14.281 0-25.898 11.617-25.898 25.898s11.617 25.898 25.898 25.898 25.898-11.617 25.898-25.898-11.617-25.898-25.898-25.898z" />
  <path
    d="m464.8 479.6h-59.199c-4.0938 0-7.3984-3.3086-7.3984-7.3984 0-4.0938 3.3086-7.3984 7.3984-7.3984h59.199c4.0938 0 7.3984 3.3086 7.3984 7.3984 0.003907 4.0898-3.3047 7.3984-7.3984 7.3984z" />
  <path
    d="m435.2 501.8h-29.598c-4.0938 0-7.3984-3.3086-7.3984-7.3984 0-4.0938 3.3086-7.3984 7.3984-7.3984h29.598c4.0938 0 7.3984 3.3086 7.3984 7.3984 0 4.0898-3.3047 7.3984-7.3984 7.3984z" />
  <path
    d="m257.61 524c-4.0938 0-7.3984-3.3086-7.3984-7.3984v-59.199c0-4.0938 3.3086-7.3984 7.3984-7.3984 4.0938 0 7.3984 3.3086 7.3984 7.3984v59.199c0.003906 4.0898-3.3047 7.3984-7.3984 7.3984z" />
  <path
    d="m279.8 464.8h-22.199c-4.0938 0-7.3984-3.3086-7.3984-7.3984 0-4.0938 3.3086-7.3984 7.3984-7.3984h22.199c4.0938 0 7.3984 3.3086 7.3984 7.3984 0 4.0898-3.3047 7.3984-7.3984 7.3984z" />
  <path
    d="m272.41 494.4h-14.801c-4.0938 0-7.3984-3.3086-7.3984-7.3984 0-4.0938 3.3086-7.3984 7.3984-7.3984h14.801c4.0938 0 7.3984 3.3086 7.3984 7.3984s-3.3086 7.3984-7.3984 7.3984z" />
  <path
    d="m279.8 524h-22.199c-4.0938 0-7.3984-3.3086-7.3984-7.3984 0-4.0938 3.3086-7.3984 7.3984-7.3984h22.199c4.0938 0 7.3984 3.3086 7.3984 7.3984s-3.3047 7.3984-7.3984 7.3984z" />
  <path
    d="m316.8 524c-4.0938 0-7.3984-3.3086-7.3984-7.3984v-59.199c0-4.0938 3.3086-7.3984 7.3984-7.3984 4.0938 0 7.3984 3.3086 7.3984 7.3984v59.199c0 4.0898-3.3086 7.3984-7.3984 7.3984z" />
  <path
    d="m331.6 464.8h-29.598c-4.0938 0-7.3984-3.3086-7.3984-7.3984 0-4.0938 3.3086-7.3984 7.3984-7.3984h29.598c4.0938 0 7.3984 3.3086 7.3984 7.3984 0.003906 4.0898-3.3047 7.3984-7.3984 7.3984z" />
  <path
    d="m546.2 501.8c-1.8945 0-3.7891-0.72656-5.2305-2.168l-22.199-22.199c-2.8945-2.8945-2.8945-7.5703 0-10.465 2.8945-2.8945 7.5703-2.8945 10.465 0l22.199 22.199c2.8945 2.8945 2.8945 7.5703 0 10.465-1.4453 1.4414-3.3398 2.168-5.2344 2.168z" />
  <path
    d="m524 501.8c-1.8945 0-3.7891-0.72656-5.2305-2.168-2.8945-2.8945-2.8945-7.5703 0-10.465l22.199-22.199c2.8945-2.8945 7.5703-2.8945 10.465 0 2.8945 2.8945 2.8945 7.5703 0 10.465l-22.199 22.199c-1.4453 1.4414-3.3398 2.168-5.2344 2.168z" />
  <path
    d="m339 279.8h-133.23c-4.0938 0-7.3984-3.3086-7.3984-7.3984 0-4.0938 3.3086-7.3984 7.3984-7.3984h133.23c4.0938 0 7.3984 3.3086 7.3984 7.3984s-3.3086 7.3984-7.3984 7.3984z" />
</svg>