<?xml version="1.0" encoding="UTF-8"?>
<svg width="128px" height="128px" version="1.1" viewBox="0 0 752 752" xmlns="http://www.w3.org/2000/svg" fill="#ffffff">
  <g>
    <path
      d="m552.71 277.75h-240.32c-2.8281 0-5.6562 2.1211-5.6562 5.6562v72.805c0 2.8281 2.1211 5.6562 5.6562 5.6562h240.32c2.8281 0 5.6562-2.1211 5.6562-5.6562v-73.512c-0.70703-2.8281-2.8281-4.9492-5.6562-4.9492zm-5.6562 72.805h-229.02v-62.203h229.72v62.203z" />
    <path
      d="m281.99 277.75h-82.699c-2.8281 0-5.6562 2.1211-5.6562 5.6562v284.15c0 2.8281 2.1211 5.6562 5.6562 5.6562h82.699c2.8281 0 5.6562-2.1211 5.6562-5.6562v-284.86c0-2.8281-2.1211-4.9492-5.6562-4.9492zm-4.9492 283.44h-72.098v-272.84h72.098z" />
    <path
      d="m552.71 149.81h-353.42c-19.793 0-35.344 16.258-35.344 35.344v381.69c0 19.793 16.258 35.344 35.344 35.344h353.42c19.793 0 35.344-16.258 35.344-35.344v-381.69c-0.003907-19.086-15.551-35.344-35.344-35.344zm-353.42 10.605h353.42c13.43 0 24.738 11.309 24.738 24.738v62.203l-402.89-0.003906v-62.199c0-13.43 11.309-24.738 24.738-24.738zm353.42 431.17h-353.42c-14.137 0-24.738-11.309-24.738-24.738v-308.89h402.9v308.89c-0.003906 13.43-11.312 24.738-24.742 24.738z" />
    <path
      d="m350.55 219.79h193.67c8.4805 0 15.551-7.0703 15.551-15.551s-7.0703-15.551-15.551-15.551l-193.67 0.003906c-8.4805 0-15.551 7.0703-15.551 15.551 0 8.4805 7.0703 15.547 15.551 15.547zm0-20.496h193.67c2.8281 0 4.9492 2.1211 4.9492 4.9492 0 2.8281-2.1211 4.9492-4.9492 4.9492l-193.67-0.003906c-2.8281 0-4.9492-2.1211-4.9492-4.9492 0-2.8242 2.1211-4.9453 4.9492-4.9453z" />
    <path
      d="m378.83 495.46h-65.734c-2.8281 0-5.6562 2.1211-5.6562 5.6562v65.734c0 2.8281 2.1211 5.6562 5.6562 5.6562h65.734c2.8281 0 5.6562-2.1211 5.6562-5.6562v-65.734c-0.70703-2.8281-2.8281-5.6562-5.6562-5.6562zm-5.6523 65.734h-55.133v-55.133h55.133z" />
    <path
      d="m465.77 495.46h-65.734c-2.8281 0-5.6562 2.1211-5.6562 5.6562v65.734c0 2.8281 2.1211 5.6562 5.6562 5.6562h65.734c2.8281 0 5.6562-2.1211 5.6562-5.6562v-65.734c-0.70703-2.8281-2.8281-5.6562-5.6562-5.6562zm-5.6562 65.734h-55.133v-55.133h55.133z" />
    <path
      d="m552.71 495.46h-65.734c-2.8281 0-5.6562 2.1211-5.6562 5.6562v65.734c0 2.8281 2.1211 5.6562 5.6562 5.6562h65.734c2.8281 0 5.6562-2.1211 5.6562-5.6562v-65.734c-0.70703-2.8281-2.8281-5.6562-5.6562-5.6562zm-5.6562 65.734h-55.133v-55.133h55.133z" />
    <path
      d="m312.39 400.04h240.32c2.8281 0 5.6562-2.1211 5.6562-5.6562s-2.1211-5.6562-5.6562-5.6562h-240.32c-2.8281 0-5.6562 2.1211-5.6562 5.6562s2.8281 5.6562 5.6562 5.6562z" />
    <path
      d="m312.39 433.25h240.32c2.8281 0 5.6562-2.1211 5.6562-5.6562s-2.1211-5.6562-5.6562-5.6562h-240.32c-2.8281 0-5.6562 2.1211-5.6562 5.6562s2.8281 5.6562 5.6562 5.6562z" />
    <path
      d="m312.39 467.18h240.32c2.8281 0 5.6562-2.1211 5.6562-5.6562s-2.1211-5.6562-5.6562-5.6562h-240.32c-2.8281 0-5.6562 2.1211-5.6562 5.6562s2.8281 5.6562 5.6562 5.6562z" />
    <path
      d="m211.31 224.74c11.309 0 20.5-9.1875 20.5-20.5 0-11.309-9.1875-20.5-20.5-20.5-11.309 0.003907-20.5 8.4844-20.5 20.5 0 12.02 9.1914 20.5 20.5 20.5zm0-31.102c5.6562 0 9.8945 4.2422 9.8945 9.8945 0 5.6562-4.2422 9.8945-9.8945 9.8945-5.6562 0-9.8945-4.2422-9.8945-9.8945 0-4.9453 4.2383-9.8945 9.8945-9.8945z" />
    <path
      d="m257.96 224.74c11.309 0 20.5-9.1875 20.5-20.5 0-11.309-9.1875-20.5-20.5-20.5-11.309 0-20.5 9.1875-20.5 20.5s9.1875 20.5 20.5 20.5zm0-31.102c5.6562 0 9.8945 4.2422 9.8945 9.8945 0 5.6562-4.2422 9.8945-9.8945 9.8945-5.6562 0-9.8945-4.2422-9.8945-9.8945-0.003906-4.9453 4.2383-9.8945 9.8945-9.8945z" />
    <path
      d="m304.61 224.74c11.309 0 20.5-9.1875 20.5-20.5 0-11.309-9.1875-21.203-20.5-21.203-11.309 0-20.5 9.1875-20.5 20.5 0.003906 11.309 9.1914 21.203 20.5 21.203zm0-31.102c5.6562 0 9.8945 4.2422 9.8945 9.8945 0 5.6562-4.2422 9.8945-9.8945 9.8945-5.6562 0-9.8945-4.2422-9.8945-9.8945 0-4.9453 4.2422-9.8945 9.8945-9.8945z" />
  </g>
</svg>