<?xml version="1.0" encoding="UTF-8"?>
<svg width="128px" height="128px" version="1.1" viewBox="0 0 752 752" xmlns="http://www.w3.org/2000/svg" fill="#ffffff">
  <path
    d="m571.59 149.16h-392.12c-11.84 0-21.312 9.9453-21.312 22.258v409.65c0 12.312 9.4727 22.258 21.312 22.258h392.12c11.84 0 21.312-9.9453 21.312-22.258v-409.65c0-12.312-9.4727-22.258-21.312-22.258zm-10.891 24.625v23.68h-363.24v-23.68zm10.891 415.33h-392.12c-3.7891 0-7.1016-3.3164-7.1016-7.5781v-367.5h405.86v367.5c0.47266 4.2617-2.8438 7.5781-6.6328 7.5781zm-77.668-241.05c22.73-28.414 18.469-69.617-9.9453-92.348-13.734-10.891-30.781-16.102-48.305-14.207-17.523 1.8945-33.152 10.418-44.043 24.152s-16.102 30.781-14.207 48.305c1.8945 17.523 10.418 33.152 24.152 44.043s30.781 16.102 48.305 14.207c17.051-1.8906 32.68-10.418 44.043-24.152zm-45.938 8.0508c-13.262 1.4219-26.047-2.3672-36.465-10.891s-16.574-20.363-17.996-33.152c-1.4219-13.262 2.3672-26.047 10.891-36.465 8.5234-10.418 20.363-16.574 33.152-17.996 13.262-1.4219 26.047 2.3672 36.465 10.891 21.312 17.051 24.625 48.305 7.1055 69.617-8.5234 9.9453-20.363 16.578-33.152 17.996zm69.145-9.4688-20.363 25.102c-0.94531 1.4219-2.3672 1.8945-3.7891 1.8945-1.4219 0-2.8398-0.47266-4.2617-1.4219-2.3672-1.8945-2.8398-5.6836-0.94531-8.0508l20.363-25.102c1.8945-2.3672 5.6836-2.8398 8.0508-0.94531 2.3672 2.3672 2.8398 5.6797 0.94531 8.5234zm49.727 37.887c2.3672 1.8945 2.3672 4.7344 0.94531 7.1055l-16.574 19.887c-1.8945 2.3672-4.7344 2.3672-7.1055 0.94531l-39.781-32.676c-2.3672-1.8945-2.3672-4.7344-0.94531-7.1055l16.574-20.363c1.8945-2.3672 4.7344-2.3672 7.1055-0.94531zm-46.41-86.191c-1.4219-14.68-7.1055-28.414-16.102-39.781h32.676c10.418 0 18.469 8.0508 18.469 18.469v74.824c0 1.8945-0.47266 4.2617-0.94531 6.1562l-19.418-16.102c-1.4219-0.94531-2.8398-1.8945-4.7344-2.8398-0.94531-3.7891-2.8398-7.5781-6.1562-10.418-1.4219-1.4219-3.3164-2.3672-5.6836-2.8398 2.3672-9 2.8398-18 1.8945-27.469zm-126.92 69.141c0.94531 0.94531 2.3672 1.8945 3.7891 2.8398l-186.59 0.003906c-10.418 0-18.469-8.0508-18.469-18.469v-74.828c0-10.418 8.0508-18.469 18.469-18.469h170.02c-12.312 16.102-17.996 35.992-16.102 56.355 2.3672 20.836 12.312 39.781 28.887 52.566zm77.668-37.414c-6.1562 7.5781-15.156 12.312-24.625 13.262h-3.7891c-8.5234 0-16.574-2.8398-23.207-8.0508-7.5781-6.1562-12.312-15.156-13.262-24.625-0.94531-9.9453 1.8945-19.418 8.0508-26.992 6.1562-7.5781 15.156-12.312 24.625-13.262h3.7891c8.5234 0 16.574 2.8398 23.207 8.0508 15.629 12.312 17.996 35.516 5.2109 51.617z" />
</svg>