<?xml version="1.0" encoding="UTF-8"?>
<svg width="128px" height="128px" version="1.1" viewBox="0 0 752 752" xmlns="http://www.w3.org/2000/svg" fill="#ffffff">
  <g>
    <path
      d="m553.59 162.89h-355.19c-9.9453 0-17.523 8.0508-17.523 17.996v92.348c0 9.4727 7.5781 17.523 17.523 17.523h354.71c9.9453 0 17.996-8.0508 17.996-17.996v-91.875c0.003907-9.9453-7.5742-17.996-17.52-17.996zm9 109.87c0 4.7344-3.7891 8.9961-8.9961 8.9961h-355.19c-4.7344 0-8.9961-3.7891-8.9961-8.9961v-91.875c0-4.7344 3.7891-8.9961 8.9961-8.9961h354.71c4.7344 0 8.9961 3.7891 8.9961 8.9961z" />
    <path
      d="m553.59 461.25h-355.19c-9.9453 0-17.996 8.0508-17.996 17.996v92.348c0 9.9453 8.0508 17.996 17.996 17.996h354.71c9.9453 0 17.996-8.0508 17.996-17.996v-92.348c0.003907-9.9453-7.5742-17.996-17.52-17.996zm9 109.87c0 4.7344-3.7891 8.9961-8.9961 8.9961h-355.19c-4.7344 0-8.9961-3.7891-8.9961-8.9961v-91.875c0-4.7344 3.7891-8.9961 8.9961-8.9961h354.71c4.7344 0 8.9961 3.7891 8.9961 8.9961z" />
    <path
      d="m553.59 312.07h-355.19c-9.9453 0-17.996 8.0508-17.996 17.996v92.348c0.47266 9.4727 8.0508 17.523 17.996 17.523h354.71c9.9453 0 17.996-8.0508 17.996-17.996v-91.875c0.003907-9.9453-7.5742-17.996-17.52-17.996zm9 109.87c0 4.7344-3.7891 8.9961-8.9961 8.9961h-355.19c-4.7344 0-8.9961-3.7891-8.9961-8.9961v-91.875c0-4.7344 3.7891-8.9961 8.9961-8.9961h354.71c4.7344 0 8.9961 3.7891 8.9961 8.9961z" />
    <path
      d="m509.55 376c0 9.9414-8.0586 17.996-17.996 17.996s-17.996-8.0547-17.996-17.996c0-9.9375 8.0586-17.996 17.996-17.996s17.996 8.0586 17.996 17.996" />
    <path
      d="m509.55 226.82c0 9.9375-8.0586 17.996-17.996 17.996s-17.996-8.0586-17.996-17.996c0-9.9414 8.0586-17.996 17.996-17.996s17.996 8.0547 17.996 17.996" />
    <path
      d="m509.55 524.23c0 9.9414-8.0586 17.996-17.996 17.996s-17.996-8.0547-17.996-17.996c0-9.9375 8.0586-17.996 17.996-17.996s17.996 8.0586 17.996 17.996" />
    <path
      d="m367 217.82h-124.08c-5.2109 0-8.9961 3.7891-8.9961 8.9961 0 5.2109 3.7891 8.9961 8.9961 8.9961h124.55c5.2109 0 8.9961-3.7891 8.9961-8.9961-0.47266-5.207-4.2617-8.9961-9.4688-8.9961z" />
    <path
      d="m367 367h-124.08c-5.2109 0-8.9961 3.7891-8.9961 8.9961 0 5.2109 3.7891 8.9961 8.9961 8.9961h124.55c5.2109 0 8.9961-3.7891 8.9961-8.9961-0.47266-5.207-4.2617-8.9961-9.4688-8.9961z" />
    <path
      d="m367 515.23h-124.08c-5.2109 0-8.9961 3.7891-8.9961 8.9961 0 5.2109 3.7891 8.9961 8.9961 8.9961h124.55c5.2109 0 8.9961-3.7891 8.9961-8.9961-0.47266-5.207-4.2617-8.9961-9.4688-8.9961z" />
  </g>
</svg>