<svg width="100%" height="100%" id="svg" viewBox="0 0 1440 600" xmlns="http://www.w3.org/2000/svg"
  class="transition duration-300 ease-in-out delay-150">
  <defs>
    <linearGradient id="gradient" x1="0%" y1="50%" x2="100%" y2="50%">
      <stop offset="5%" stop-color="#43cea288"></stop>
      <stop offset="95%" stop-color="#185a9d88"></stop>
    </linearGradient>
  </defs>
  <path
    d="M 0,600 C 0,600 0,200 0,200 C 117.24401913875596,205.71291866028707 234.48803827751192,211.42583732057417 336,196 C 437.5119617224881,180.57416267942583 523.2918660287082,144.00956937799043 595,153 C 666.7081339712918,161.99043062200957 724.3444976076554,216.53588516746413 829,247 C 933.6555023923446,277.46411483253587 1085.33014354067,283.8468899521531 1195,272 C 1304.66985645933,260.1531100478469 1372.334928229665,230.07655502392345 1440,200 C 1440,200 1440,600 1440,600 Z"
    stroke="none" stroke-width="0" fill="url(#gradient)"
    class="transition-all duration-300 ease-in-out delay-150 path-0"></path>
  <defs>
    <linearGradient id="gradient" x1="0%" y1="50%" x2="100%" y2="50%">
      <stop offset="5%" stop-color="#43cea2ff"></stop>
      <stop offset="95%" stop-color="#185a9dff"></stop>
    </linearGradient>
  </defs>
  <path
    d="M 0,600 C 0,600 0,400 0,400 C 122.24880382775123,441.99043062200957 244.49760765550246,483.98086124401914 334,470 C 423.50239234449754,456.01913875598086 480.2583732057416,386.06698564593296 571,379 C 661.7416267942584,371.93301435406704 786.4688995215311,427.7511961722488 891,454 C 995.5311004784689,480.2488038277512 1079.8660287081339,476.9282296650718 1168,463 C 1256.1339712918661,449.0717703349282 1348.066985645933,424.53588516746413 1440,400 C 1440,400 1440,600 1440,600 Z"
    stroke="none" stroke-width="0" fill="url(#gradient)"
    class="transition-all duration-300 ease-in-out delay-150 path-1"></path>
</svg>